<?xml version="1.0" encoding="UTF-8"?>
<svg xmlns="http://www.w3.org/2000/svg" version="1.1" xmlns:xlink="http://www.w3.org/1999/xlink" viewBox="0 0 512 512">
  <defs>
    <style>
      .cls-1 {
        fill: url(#linear-gradient-2);
      }

      .cls-2 {
        fill: #fff;
      }

      .cls-3 {
        fill: url(#linear-gradient);
      }
    </style>
    <linearGradient id="linear-gradient" x1="51.55" y1="419.52" x2="498.95" y2="64.37" gradientTransform="translate(0 513.21) scale(1 -1)" gradientUnits="userSpaceOnUse">
      <stop offset="0" stop-color="#9013fe"/>
      <stop offset="1" stop-color="#6610f2"/>
    </linearGradient>
    <linearGradient id="linear-gradient-2" x1="189.15" y1="348.89" x2="289.15" y2="179.76" gradientTransform="translate(0 513.21) scale(1 -1)" gradientUnits="userSpaceOnUse">
      <stop offset="0" stop-color="#fff"/>
      <stop offset="1" stop-color="#f1e5fc"/>
    </linearGradient>
  </defs>
  <!-- Generator: Adobe Illustrator 28.6.0, SVG Export Plug-In . SVG Version: 1.2.0 Build 709)  -->
  <g>
    <g id="Layer_1">
      <g>
        <path class="cls-3" d="M56.48,105.32c-.97-27.74,20.65-53.32,49.86-53.32h299.35c29.21,0,50.83,25.58,49.86,53.32-.93,26.65.28,61.17,8.96,89.31,8.71,28.23,23.41,46.08,47.48,48.37v26c-24.07,2.29-38.77,20.14-47.48,48.37-8.69,28.14-9.89,62.66-8.96,89.31.97,27.74-20.65,53.32-49.86,53.32H106.34c-29.21,0-50.83-25.58-49.86-53.32.93-26.65-.28-61.17-8.97-89.31-8.71-28.23-23.45-46.08-47.52-48.37v-26c24.07-2.29,38.8-20.14,47.52-48.37,8.69-28.15,9.89-62.66,8.97-89.31Z"/>
        <g>
          <path class="cls-1" d="M267.1,364.46c47.3,0,75.8-23.16,75.8-61.35,0-28.87-20.34-49.78-50.53-53.09v-1.2c22.18-3.61,39.59-24.21,39.59-47.22,0-32.78-25.88-54.14-65.32-54.14h-88.74v217h89.2ZM212.41,174.98h45.91c24.96,0,39.13,11.13,39.13,31.28,0,21.51-16.48,33.54-46.37,33.54h-38.67v-64.81ZM212.41,336.94v-71.43h45.6c32.66,0,49.61,12.03,49.61,35.49s-16.48,35.94-47.61,35.94h-47.6Z"/>
          <path class="cls-2" d="M267.1,364.96h-89.7v-218h89.24c19.48,0,36,5.15,47.77,14.89,11.81,9.78,18.05,23.52,18.05,39.75,0,22.96-17.36,43.8-39.59,47.64v.33c30.25,3.5,50.53,24.96,50.53,53.53,0,18.91-7.04,34.6-20.35,45.39-13.29,10.77-32.64,16.46-55.95,16.46ZM178.4,363.96h88.7c47.15,0,75.3-22.75,75.3-60.86,0-28.17-20.13-49.3-50.09-52.59l-.45-.05v-2.08l.42-.07c21.97-3.57,39.17-24.1,39.17-46.73,0-32.58-25.44-53.64-64.82-53.64h-88.24v216ZM260.02,337.44h-48.1v-72.43h46.1c32.78,0,50.11,12.45,50.11,35.99s-16.63,36.44-48.11,36.44ZM212.91,336.44h47.1c30.82,0,47.11-12.25,47.11-35.44s-16.52-34.99-49.11-34.99h-45.1v70.43ZM251.08,240.29h-39.17v-65.81h46.41c25.19,0,39.63,11.58,39.63,31.78,0,21.95-16.65,34.04-46.87,34.04ZM212.91,239.29h38.17c29.58,0,45.87-11.73,45.87-33.04,0-19.85-13.72-30.78-38.63-30.78h-45.41v63.81Z"/>
        </g>
      </g>
    </g>
  </g>
</svg>