<?xml version="1.0" encoding="utf-8"?>
<!-- Generator: Adobe Illustrator 27.0.0, SVG Export Plug-In . SVG Version: 6.00 Build 0)  -->
<svg version="1.1" id="Layer_1" xmlns="http://www.w3.org/2000/svg" xmlns:xlink="http://www.w3.org/1999/xlink" x="0px" y="0px"
	 viewBox="0 0 512 512" style="enable-background:new 0 0 512 512;" xml:space="preserve">
<style type="text/css">
	.st0{fill:#AE132A;}
</style>
<g id="XMLID_1_">
	<polygon id="XMLID_2_" class="st0" points="497.65,291.08 494.14,291.08 494.14,300.05 491.05,300.05 491.05,291.08 487.69,291.08 
		487.69,288.41 497.65,288.41 	"/>
	<polygon id="XMLID_3_" class="st0" points="498.91,288.41 503.4,288.41 505.5,296.27 505.5,296.27 507.46,288.41 511.95,288.41 
		511.95,300.05 509.15,300.05 509.15,291.22 509.15,291.22 506.62,300.19 504.38,300.19 501.85,291.22 501.85,291.22 501.85,300.19 
		499.05,300.19 499.05,288.41 	"/>
	<path id="XMLID_4_" class="st0" d="M377.46,299.49c-4.07,1.82-8.41,2.66-12.76,2.66c-6.87,0-12.9-1.12-18.37-3.51
		c-5.19-2.24-9.96-5.61-13.74-9.82c-3.79-4.21-6.73-9.26-8.55-14.72c-1.96-5.89-3.09-11.92-2.94-18.23c0-6.31,0.98-12.62,2.94-18.51
		c1.82-5.47,4.77-10.52,8.55-14.86c3.79-4.35,8.55-7.71,13.74-9.96c5.47-2.38,11.5-3.65,18.37-3.65c4.49,0,8.98,0.7,13.18,2.1
		c4.21,1.26,8.13,3.37,11.64,6.03c7.29,5.61,11.92,14.16,12.62,23.28h-18.65c-1.12-5.05-3.37-8.69-6.73-11.22
		c-3.37-2.52-7.29-3.79-12.06-3.79c-4.35,0-8.13,0.84-11.22,2.52c-2.94,1.68-5.61,4.07-7.43,6.87c-1.96,2.94-3.37,6.31-4.21,9.82
		c-0.84,3.79-1.26,7.57-1.26,11.36c0,3.65,0.42,7.29,1.26,10.94c0.84,3.37,2.24,6.59,4.21,9.54c1.96,2.8,4.49,5.19,7.43,6.73
		c3.09,1.68,6.87,2.52,11.22,2.52c6.45,0,11.5-1.68,15.01-4.91s5.61-7.99,6.17-14.16h-19.63v-14.72h37.3v48.1h-12.48l-1.96-10.1
		C385.6,294.58,381.67,297.67,377.46,299.49z"/>
	<polygon id="XMLID_5_" class="st0" points="435.1,211.14 435.1,283.51 478.57,283.51 478.57,300.05 415.61,300.05 415.61,211.14 	
		"/>
	<path id="XMLID_6_" class="st0" d="M342.83,311.13c-29.87,18.09-74.61,28.47-124.53,28.47c-89.89,0-162.81-37.44-162.81-83.58
		s72.92-83.58,162.81-83.58c50.06,0,94.94,10.52,124.81,28.75c-32.53-30.57-91.01-52.17-157.91-52.17
		c-102.37,0-185.25,47.82-185.25,106.86s83.02,107,185.25,107C251.95,363.02,310.15,341.56,342.83,311.13z"/>
	<polygon id="XMLID_7_" class="st0" points="178.89,204.27 161.78,278.46 141.03,204.27 125.32,204.27 104.57,278.46 87.32,204.27 
		71.19,204.27 96.57,301.04 111.86,301.04 133.31,225.03 154.35,301.04 169.64,301.04 196,204.27 	"/>
	<path id="XMLID_8_" class="st0" d="M238.91,244.94c-2.24-3.23-5.33-5.89-8.83-7.71c-3.93-1.82-8.13-2.8-12.34-2.66
		c-5.19,0-9.96,0.98-13.88,2.8c-3.79,1.68-7.15,4.35-9.68,7.71c-4.91,6.17-7.43,15.01-7.43,25.24c0,4.35,0.7,8.69,1.96,12.76
		c1.26,3.79,3.09,7.29,5.61,10.24c5.19,6.03,12.62,9.26,21.46,9.26c4.63,0,8.41-0.42,11.64-1.54c2.1-0.7,4.21-1.68,6.03-2.94
		c1.96-1.26,3.79-2.8,5.33-4.63c1.4-1.54,2.52-3.23,3.51-5.05c1.82-3.37,2.66-6.45,2.94-7.99l0.14-1.12h-12.62l-0.14,0.84
		c-0.28,4.07-5.75,11.5-15.29,11.5c-13.74,0-16.97-9.96-17.25-18.65h46v-0.98c0-5.19-0.56-10.24-1.68-15.29
		C243.12,252.51,241.3,248.59,238.91,244.94z M216.19,245.92c10.24,0,15.57,5.47,16.55,16.69h-32.82
		C200.35,253.5,207.64,245.92,216.19,245.92L216.19,245.92z"/>
	<path id="XMLID_11_" class="st0" d="M309.45,254.2c-1.12-3.79-2.94-7.15-5.33-10.24c-2.38-2.94-5.33-5.33-8.69-6.87
		c-3.65-1.68-7.57-2.52-11.64-2.52c-3.65,0-7.29,0.84-10.66,2.52c-2.66,1.4-5.05,3.23-6.87,5.61v-29.73h-12.62v87.93h11.92v-6.03
		c1.12,1.54,2.66,2.94,4.21,4.07c3.37,2.38,7.57,3.65,12.48,3.65c5.33,0,9.96-1.12,13.88-3.51c3.65-2.1,6.73-5.19,8.98-8.83
		c2.24-3.65,3.79-7.57,4.77-11.64c0.98-3.93,1.4-7.99,1.4-12.06C311.27,262.61,310.71,258.4,309.45,254.2z M298.09,268.5
		c0,6.87-1.4,12.62-4.07,16.69c-2.8,4.35-6.87,6.45-12.06,6.45c-7.57,0-16.27-5.33-16.27-20.05c0-7.15,0.84-12.62,2.66-16.69
		c2.66-6.03,7.01-8.83,13.46-8.83c6.87,0,11.36,2.66,13.88,8.13C297.81,258.68,298.09,264.29,298.09,268.5L298.09,268.5z"/>
</g>
</svg>
